G04 ================== begin FILE IDENTIFICATION RECORD ==================*
G04 Layout Name:  E:/office/PROJECT9/110317/PCB/7SEG.brd*
G04 Film Name:    BOT_MASK*
G04 File Format:  Gerber RS274X*
G04 File Origin:  Cadence Allegro 16.6-P004*
G04 Origin Date:  Sat Mar 11 20:02:50 2017*
G04 *
G04 Layer:  PIN/SOLDERMASK_BOTTOM*
G04 Layer:  PACKAGE GEOMETRY/SOLDERMASK_BOTTOM*
G04 Layer:  BOARD GEOMETRY/OUTLINE*
G04 *
G04 Offset:    (0.00 0.00)*
G04 Mirror:    No*
G04 Mode:      Positive*
G04 Rotation:  0*
G04 FullContactRelief:  No*
G04 UndefLineWidth:     0.00*
G04 ================== end FILE IDENTIFICATION RECORD ====================*
%FSLAX25Y25*MOIN*%
%IR0*IPPOS*OFA0.00000B0.00000*MIA0B0*SFA1.00000B1.00000*%
%ADD14C,.05*%
%ADD15C,.045*%
%ADD13R,.05X.05*%
%ADD11C,.075*%
%ADD12R,.075X.075*%
%ADD10C,.2*%
%ADD16C,.005*%
G75*
%LPD*%
G75*
G54D10*
X12000Y12000D03*
Y132000D03*
X223500Y12000D03*
Y132000D03*
G54D11*
X16500Y39500D03*
Y49500D03*
Y59500D03*
Y69500D03*
X67000Y21000D03*
X69500Y49500D03*
X59500D03*
X69500Y79500D03*
X59500D03*
X49500D03*
X97000Y21000D03*
X87000D03*
X77000D03*
X99500Y49500D03*
X89500D03*
X79500D03*
X99500Y79500D03*
X89500D03*
X79500D03*
X100500Y127500D03*
X90500D03*
X80500D03*
X107000Y21000D03*
X129500Y49500D03*
X119500D03*
X109500D03*
X129500Y79500D03*
X119500D03*
X109500D03*
X120500Y127500D03*
X110500D03*
X163500Y21000D03*
X153500D03*
X143500D03*
X159500Y49500D03*
X149500D03*
X139500D03*
X159500Y79500D03*
X149500D03*
X139500D03*
X157000Y127500D03*
X183500Y21000D03*
X173500D03*
X187000Y127500D03*
X177000D03*
X167000D03*
X210000Y45000D03*
Y55000D03*
Y65000D03*
X197000Y127500D03*
G54D12*
X16500Y79500D03*
X57000Y21000D03*
X49500Y49500D03*
X70500Y127500D03*
X133500Y21000D03*
X147000Y127500D03*
X210000Y75000D03*
G54D13*
X16500Y94500D03*
X49500Y102000D03*
G54D14*
X16500Y114200D03*
X49500Y121700D03*
G54D15*
X74500Y102000D03*
X124500D03*
G54D16*
G01X0Y0D02*
X235600D01*
Y145800D01*
X0D01*
Y0D01*
M02*
