G04 ================== begin FILE IDENTIFICATION RECORD ==================*
G04 Layout Name:  E:/office/PROJECT9/110317/PCB/7SEG.brd*
G04 Film Name:    TOP*
G04 File Format:  Gerber RS274X*
G04 File Origin:  Cadence Allegro 16.6-P004*
G04 Origin Date:  Sat Mar 11 20:02:50 2017*
G04 *
G04 Layer:  ROUTE KEEPIN/ALL*
G04 Layer:  PIN/TOP*
G04 Layer:  ETCH/TOP*
G04 Layer:  BOARD GEOMETRY/OUTLINE*
G04 *
G04 Offset:    (0.00 0.00)*
G04 Mirror:    No*
G04 Mode:      Positive*
G04 Rotation:  0*
G04 FullContactRelief:  No*
G04 UndefLineWidth:     0.00*
G04 ================== end FILE IDENTIFICATION RECORD ====================*
%FSLAX25Y25*MOIN*%
%IR0*IPPOS*OFA0.00000B0.00000*MIA0B0*SFA1.00000B1.00000*%
%ADD11C,.07*%
%ADD14C,.045*%
%ADD12R,.07X.07*%
%ADD13R,.045X.045*%
%ADD10C,.2*%
%ADD15C,.04*%
%ADD16C,.015*%
%ADD17C,.005*%
G75*
%LPD*%
G75*
G54D10*
X12000Y12000D03*
Y132000D03*
X223500Y12000D03*
Y132000D03*
G54D11*
X16500Y39500D03*
Y49500D03*
Y59500D03*
Y69500D03*
X67000Y21000D03*
X69500Y49500D03*
X59500D03*
X69500Y79500D03*
X59500D03*
X49500D03*
X97000Y21000D03*
X87000D03*
X77000D03*
X99500Y49500D03*
X89500D03*
X79500D03*
X99500Y79500D03*
X89500D03*
X79500D03*
X100500Y127500D03*
X90500D03*
X80500D03*
X107000Y21000D03*
X129500Y49500D03*
X119500D03*
X109500D03*
X129500Y79500D03*
X119500D03*
X109500D03*
X120500Y127500D03*
X110500D03*
X163500Y21000D03*
X153500D03*
X143500D03*
X159500Y49500D03*
X149500D03*
X139500D03*
X159500Y79500D03*
X149500D03*
X139500D03*
X157000Y127500D03*
X183500Y21000D03*
X173500D03*
X187000Y127500D03*
X177000D03*
X167000D03*
X210000Y45000D03*
Y55000D03*
Y65000D03*
X197000Y127500D03*
G54D12*
X16500Y79500D03*
X57000Y21000D03*
X49500Y49500D03*
X70500Y127500D03*
X133500Y21000D03*
X147000Y127500D03*
X210000Y75000D03*
G54D13*
X16500Y94500D03*
X49500Y102000D03*
G54D14*
X16500Y114200D03*
X49500Y121700D03*
X74500Y102000D03*
X124500D03*
G54D15*
G01X16500Y94500D02*
Y96000D01*
X22500Y102000D01*
X49500D01*
G01X16500Y79500D02*
Y94500D01*
G01X74500Y102000D02*
X49500D01*
G01X99500Y79500D02*
Y94000D01*
X91500Y102000D01*
X74500D01*
G54D16*
G01X49500Y49500D02*
X39500Y39500D01*
X16500D01*
G01X133500Y21000D02*
Y10500D01*
X129000Y6000D01*
X57000D01*
X49500Y13500D01*
Y39500D01*
X59500Y49500D01*
G01X67000Y21000D02*
Y12000D01*
X70500Y8500D01*
X116510D01*
X121500Y13490D01*
Y22500D01*
X126000Y27000D01*
X137500D01*
X143500Y21000D01*
G01X57000D02*
Y37000D01*
X69500Y49500D01*
G01X153500Y21000D02*
X146010Y28490D01*
Y28500D01*
X144510Y30000D01*
X123010D01*
X118500Y25490D01*
Y15000D01*
X114000Y10500D01*
X82500D01*
X77000Y16000D01*
Y21000D01*
G01X173500D02*
Y27500D01*
X165000Y36000D01*
X102000D01*
X99500Y38500D01*
Y49500D01*
G01X139500D02*
X129000Y39000D01*
X110250D01*
X104250Y45000D01*
Y56250D01*
X97500Y63000D01*
X90260D01*
X84250Y56990D01*
Y32750D01*
X87000Y30000D01*
Y21000D01*
G01X97000D02*
Y26000D01*
X89500Y33500D01*
Y49500D01*
G01X177000Y127500D02*
X170000Y120500D01*
X143500D01*
X126500Y137500D01*
X104500D01*
X100500Y133500D01*
Y127500D01*
G01X90500D02*
X102500Y139500D01*
X160500D01*
X167000Y133000D01*
Y127500D01*
G01X183500Y21000D02*
Y14000D01*
X180070Y10570D01*
X170930D01*
X168250Y13250D01*
Y25250D01*
X160500Y33000D01*
X119000D01*
X107000Y21000D01*
G01X197000Y127500D02*
X182000Y112500D01*
X155780D01*
X124500Y81220D01*
Y45000D01*
X121500Y42000D01*
X112240D01*
X109500Y44740D01*
Y49500D01*
G01X120500Y127500D02*
Y120500D01*
X104750Y104750D01*
Y69250D01*
X119500Y54500D01*
Y49500D01*
G01X158500Y118500D02*
X119500Y79500D01*
G01X109500D02*
Y91500D01*
X120000Y102000D01*
X124500D01*
G01X183500Y21000D02*
Y23500D01*
X168000Y39000D01*
X150000D01*
X144250Y44750D01*
Y64750D01*
X129500Y79500D01*
G01X158500Y118500D02*
X141000D01*
X126000Y133500D01*
X111740D01*
X110500Y132260D01*
Y127500D01*
G01X163500Y21000D02*
Y12000D01*
X169500Y6000D01*
X193500D01*
X201000Y13500D01*
Y24000D01*
X183000Y42000D01*
X152240D01*
X149500Y44740D01*
Y49500D01*
G01X159500D02*
X204500D01*
X210000Y55000D01*
G01X158500Y118500D02*
X178000D01*
X187000Y127500D01*
G54D17*
G01X0Y0D02*
X235600D01*
Y145800D01*
X0D01*
Y0D01*
G01X209500Y115000D02*
Y112000D01*
X211500D01*
G01X214500D02*
Y115000D01*
X213900Y114400D01*
G01Y112000D02*
X215100D01*
G01X212000Y116000D02*
Y110000D01*
G01X217000Y116000D02*
Y110000D01*
G01X222000Y116000D02*
X208000D01*
G01D02*
Y110000D01*
X222000D01*
G01Y116000D02*
Y110000D01*
M02*
