G04 ================== begin FILE IDENTIFICATION RECORD ==================*
G04 Layout Name:  E:/office/PROJECT9/110317/PCB/7SEG.brd*
G04 Film Name:    TOP_SILK*
G04 File Format:  Gerber RS274X*
G04 File Origin:  Cadence Allegro 16.6-P004*
G04 Origin Date:  Sat Mar 11 20:02:50 2017*
G04 *
G04 Layer:  REF DES/SILKSCREEN_TOP*
G04 Layer:  PACKAGE GEOMETRY/SILKSCREEN_TOP*
G04 Layer:  BOARD GEOMETRY/OUTLINE*
G04 *
G04 Offset:    (0.00 0.00)*
G04 Mirror:    No*
G04 Mode:      Positive*
G04 Rotation:  0*
G04 FullContactRelief:  No*
G04 UndefLineWidth:     5.00*
G04 ================== end FILE IDENTIFICATION RECORD ====================*
%FSLAX25Y25*MOIN*%
%IR0*IPPOS*OFA0.00000B0.00000*MIA0B0*SFA1.00000B1.00000*%
%ADD10C,.005*%
%ADD11C,.006*%
G75*
%LPD*%
G75*
G54D10*
G01X82900Y-3000D02*
Y-8000D01*
G01X81443Y-3000D02*
X84357D01*
G01X88000Y-8000D02*
X87493Y-7917D01*
X87050Y-7583D01*
X86670Y-7083D01*
X86417Y-6500D01*
X86290Y-5833D01*
Y-5167D01*
X86417Y-4500D01*
X86670Y-3917D01*
X87050Y-3417D01*
X87493Y-3083D01*
X88000Y-3000D01*
X88507Y-3083D01*
X88950Y-3417D01*
X89330Y-3917D01*
X89583Y-4500D01*
X89710Y-5167D01*
Y-5833D01*
X89583Y-6500D01*
X89330Y-7083D01*
X88950Y-7583D01*
X88507Y-7917D01*
X88000Y-8000D01*
G01X91833D02*
Y-3000D01*
X93353D01*
X93860Y-3250D01*
X94240Y-3833D01*
X94367Y-4500D01*
X94240Y-5167D01*
X93923Y-5667D01*
X93353Y-5917D01*
X91833D01*
G01X101970Y-7333D02*
X102477Y-7750D01*
X103047Y-8000D01*
X103553D01*
X104060Y-7750D01*
X104440Y-7333D01*
X104630Y-6750D01*
X104503Y-6167D01*
X104187Y-5667D01*
X103617Y-5333D01*
X102857Y-5167D01*
X102413Y-4833D01*
X102223Y-4250D01*
X102350Y-3667D01*
X102667Y-3250D01*
X103110Y-3000D01*
X103553D01*
X103997Y-3167D01*
X104377Y-3583D01*
G01X107640Y-3000D02*
X109160D01*
G01X108400D02*
Y-8000D01*
G01X107640D02*
X109160D01*
G01X112233Y-3000D02*
Y-8000D01*
X114767D01*
G01X117207D02*
Y-3000D01*
G01X119613D02*
X117207Y-6083D01*
G01X119993Y-8000D02*
X118283Y-4667D01*
G01X0Y0D02*
X235600D01*
Y145800D01*
X0D01*
Y0D01*
G01X24000Y12000D02*
G03I-12000J0D01*
G01X11500Y80500D02*
G03I-1000J0D01*
G01X30640Y104500D02*
G03I-14140J0D01*
G01X24000Y132000D02*
G03I-12000J0D01*
G01X25200Y11000D02*
Y14000D01*
X26500Y11500D01*
X27800Y14000D01*
Y11000D01*
G01X28450D02*
Y14000D01*
G01X30550D02*
Y11000D01*
G01Y12500D02*
X28450D01*
G01X31400Y11600D02*
X31700Y11250D01*
X32100Y11050D01*
X32550Y11000D01*
X32950Y11050D01*
X33350Y11300D01*
X33600Y11600D01*
X33650Y11900D01*
X33550Y12250D01*
X33200Y12500D01*
X32850Y12600D01*
X32400D01*
G01X32850D02*
X33150Y12750D01*
X33400Y13000D01*
X33500Y13300D01*
X33400Y13600D01*
X33150Y13850D01*
X32700Y14000D01*
X32250Y13950D01*
X31800Y13750D01*
G01X41300Y41000D02*
G03I-1800J0D01*
G01X21500Y84500D02*
Y34500D01*
X11500D01*
Y84500D01*
X21500D01*
G01X59500Y91000D02*
Y134000D01*
X39500D01*
Y91000D01*
X59500D01*
G01X27600Y92750D02*
X27300Y92900D01*
X26950Y93000D01*
X26550D01*
X26100Y92850D01*
X25750Y92600D01*
X25500Y92300D01*
X25300Y91800D01*
X25250Y91350D01*
X25350Y90900D01*
X25500Y90600D01*
X25800Y90300D01*
X26150Y90100D01*
X26500Y90000D01*
X26850D01*
X27200Y90100D01*
X27500Y90250D01*
X27750Y90450D01*
G01X29500Y90000D02*
Y93000D01*
X28900Y92400D01*
G01Y90000D02*
X30100D01*
G01X16500Y86500D02*
Y88500D01*
G01X15500Y87500D02*
X17500D01*
G01X41600Y138750D02*
X41300Y138900D01*
X40950Y139000D01*
X40550D01*
X40100Y138850D01*
X39750Y138600D01*
X39500Y138300D01*
X39300Y137800D01*
X39250Y137350D01*
X39350Y136900D01*
X39500Y136600D01*
X39800Y136300D01*
X40150Y136100D01*
X40500Y136000D01*
X40850D01*
X41200Y136100D01*
X41500Y136250D01*
X41750Y136450D01*
G01X42550Y138500D02*
X42850Y138800D01*
X43200Y138950D01*
X43600Y139000D01*
X44100Y138900D01*
X44450Y138650D01*
X44550Y138350D01*
X44500Y138050D01*
X44300Y137800D01*
X43300Y137300D01*
X42850Y136950D01*
X42550Y136450D01*
X42450Y136000D01*
X44550D01*
G01X22200Y140000D02*
Y143000D01*
X23500Y140500D01*
X24800Y143000D01*
Y140000D01*
G01X25450D02*
Y143000D01*
G01X27550D02*
Y140000D01*
G01Y141500D02*
X25450D01*
G01X29500Y140000D02*
Y143000D01*
X28900Y142400D01*
G01Y140000D02*
X30100D01*
G01X52000Y16000D02*
X112000D01*
Y26000D01*
X52000D01*
Y16000D01*
G01X57000Y15000D02*
G03I-1000J0D01*
G01X44500Y69500D02*
X50500D01*
Y62500D01*
X44500D01*
G01Y84000D02*
X164500D01*
Y44000D01*
X44500D01*
Y84000D01*
G01X65500Y122500D02*
X125500D01*
Y132500D01*
X65500D01*
Y122500D01*
G01X70500Y121500D02*
G03I-1000J0D01*
G01X127500Y105000D02*
Y99000D01*
X71500D01*
Y105000D01*
X127500D01*
G01X109550Y12250D02*
X109900Y12600D01*
X110200Y12800D01*
X110600Y12900D01*
X110950Y12800D01*
X111200Y12600D01*
X111400Y12300D01*
X111450Y11950D01*
X111400Y11650D01*
X111200Y11350D01*
X110900Y11100D01*
X110550Y11000D01*
X110150Y11100D01*
X109800Y11400D01*
X109600Y11850D01*
X109550Y12350D01*
X109650Y13000D01*
X109800Y13350D01*
X110050Y13700D01*
X110400Y13950D01*
X110750Y14000D01*
X111100Y13900D01*
X111350Y13650D01*
G01X128500Y16000D02*
X188500D01*
Y26000D01*
X128500D01*
Y16000D01*
G01X124550Y119250D02*
X124900Y119600D01*
X125200Y119800D01*
X125600Y119900D01*
X125950Y119800D01*
X126200Y119600D01*
X126400Y119300D01*
X126450Y118950D01*
X126400Y118650D01*
X126200Y118350D01*
X125900Y118100D01*
X125550Y118000D01*
X125150Y118100D01*
X124800Y118400D01*
X124600Y118850D01*
X124550Y119350D01*
X124650Y120000D01*
X124800Y120350D01*
X125050Y120700D01*
X125400Y120950D01*
X125750Y121000D01*
X126100Y120900D01*
X126350Y120650D01*
G01X133500Y15000D02*
G03I-1000J0D01*
G01X142000Y122500D02*
X202000D01*
Y132500D01*
X142000D01*
Y122500D01*
G01X147000Y121500D02*
G03I-1000J0D01*
G01X186550Y12250D02*
X186900Y12600D01*
X187200Y12800D01*
X187600Y12900D01*
X187950Y12800D01*
X188200Y12600D01*
X188400Y12300D01*
X188450Y11950D01*
X188400Y11650D01*
X188200Y11350D01*
X187900Y11100D01*
X187550Y11000D01*
X187150Y11100D01*
X186800Y11400D01*
X186600Y11850D01*
X186550Y12350D01*
X186650Y13000D01*
X186800Y13350D01*
X187050Y13700D01*
X187400Y13950D01*
X187750Y14000D01*
X188100Y13900D01*
X188350Y13650D01*
G01X203200Y10000D02*
Y13000D01*
X204500Y10500D01*
X205800Y13000D01*
Y10000D01*
G01X206450D02*
Y13000D01*
G01X208550D02*
Y10000D01*
G01Y11500D02*
X206450D01*
G01X211100Y10000D02*
Y13000D01*
X209250Y10850D01*
X211750D01*
G01X235500Y12000D02*
G03I-12000J0D01*
G01X203100Y41000D02*
Y44000D01*
X201250Y41850D01*
X203750D01*
G01X205000Y80000D02*
Y40000D01*
X215000D01*
Y80000D01*
X205000D01*
G01X207500Y82600D02*
X207750Y82300D01*
X208050Y82100D01*
X208400Y82000D01*
X208800Y82100D01*
X209100Y82300D01*
X209400Y82600D01*
X209500Y83000D01*
Y85000D01*
G01X210400Y82600D02*
X210700Y82250D01*
X211100Y82050D01*
X211550Y82000D01*
X211950Y82050D01*
X212350Y82300D01*
X212600Y82600D01*
X212650Y82900D01*
X212550Y83250D01*
X212200Y83500D01*
X211850Y83600D01*
X211400D01*
G01X211850D02*
X212150Y83750D01*
X212400Y84000D01*
X212500Y84300D01*
X212400Y84600D01*
X212150Y84850D01*
X211700Y85000D01*
X211250Y84950D01*
X210800Y84750D01*
G01X205000Y77000D02*
G03I-1000J0D01*
G01X200550Y119250D02*
X200900Y119600D01*
X201200Y119800D01*
X201600Y119900D01*
X201950Y119800D01*
X202200Y119600D01*
X202400Y119300D01*
X202450Y118950D01*
X202400Y118650D01*
X202200Y118350D01*
X201900Y118100D01*
X201550Y118000D01*
X201150Y118100D01*
X200800Y118400D01*
X200600Y118850D01*
X200550Y119350D01*
X200650Y120000D01*
X200800Y120350D01*
X201050Y120700D01*
X201400Y120950D01*
X201750Y121000D01*
X202100Y120900D01*
X202350Y120650D01*
G01X235500Y132000D02*
G03I-12000J0D01*
G01X205200Y140000D02*
Y143000D01*
X206500Y140500D01*
X207800Y143000D01*
Y140000D01*
G01X208450D02*
Y143000D01*
G01X210550D02*
Y140000D01*
G01Y141500D02*
X208450D01*
G01X211550Y142500D02*
X211850Y142800D01*
X212200Y142950D01*
X212600Y143000D01*
X213100Y142900D01*
X213450Y142650D01*
X213550Y142350D01*
X213500Y142050D01*
X213300Y141800D01*
X212300Y141300D01*
X211850Y140950D01*
X211550Y140450D01*
X211450Y140000D01*
X213550D01*
G54D11*
G01X6800Y33900D02*
X7400Y33400D01*
X8100Y33100D01*
X9000Y33000D01*
X9900Y33200D01*
X10600Y33600D01*
X11100Y34300D01*
X11200Y35100D01*
X11000Y35900D01*
X10500Y36400D01*
X9800Y36800D01*
X9100Y36900D01*
X8400Y36800D01*
X7500Y36400D01*
X7800Y39000D01*
X10500D01*
G01X8000Y76200D02*
Y73800D01*
G01Y75000D02*
X2000D01*
G01Y76200D02*
Y73800D01*
G01Y71300D02*
X8000D01*
X2000Y66700D01*
X8000D01*
G01X2000Y65000D02*
X8000D01*
Y62600D01*
X7700Y61800D01*
X7000Y61200D01*
X6200Y61000D01*
X5400Y61200D01*
X4800Y61700D01*
X4500Y62600D01*
Y65000D01*
G01X8000Y59200D02*
X3700D01*
X2800Y58800D01*
X2200Y58000D01*
X2000Y57000D01*
X2200Y56000D01*
X2800Y55200D01*
X3700Y54800D01*
X8000D01*
G01Y51000D02*
X2000D01*
G01X8000Y53300D02*
Y48700D01*
G01X20000Y30200D02*
X20500Y29600D01*
X21100Y29200D01*
X21800Y29000D01*
X22600Y29200D01*
X23200Y29600D01*
X23800Y30200D01*
X24000Y31000D01*
Y35000D01*
G01X26100Y34000D02*
X26700Y34600D01*
X27400Y34900D01*
X28200Y35000D01*
X29200Y34800D01*
X29900Y34300D01*
X30100Y33700D01*
X30000Y33100D01*
X29600Y32600D01*
X27600Y31600D01*
X26700Y30900D01*
X26100Y29900D01*
X25900Y29000D01*
X30100D01*
G01X33100Y83000D02*
X33700Y83600D01*
X34400Y83900D01*
X35200Y84000D01*
X36200Y83800D01*
X36900Y83300D01*
X37100Y82700D01*
X37000Y82100D01*
X36600Y81600D01*
X34600Y80600D01*
X33700Y79900D01*
X33100Y78900D01*
X32900Y78000D01*
X37100D01*
G01X42200D02*
Y84000D01*
X38500Y79700D01*
X43500D01*
G01X56500Y8000D02*
X59000Y14000D01*
X61500Y8000D01*
G01X60600Y10100D02*
X57400D01*
G01X63100Y13000D02*
X63700Y13600D01*
X64400Y13900D01*
X65200Y14000D01*
X66200Y13800D01*
X66900Y13300D01*
X67100Y12700D01*
X67000Y12100D01*
X66600Y11600D01*
X64600Y10600D01*
X63700Y9900D01*
X63100Y8900D01*
X62900Y8000D01*
X67100D01*
G01X54000Y28200D02*
X54500Y27600D01*
X55100Y27200D01*
X55800Y27000D01*
X56600Y27200D01*
X57200Y27600D01*
X57800Y28200D01*
X58000Y29000D01*
Y33000D01*
G01X60100Y29500D02*
X60800Y30200D01*
X61400Y30600D01*
X62200Y30800D01*
X62900Y30600D01*
X63400Y30200D01*
X63800Y29600D01*
X63900Y28900D01*
X63800Y28300D01*
X63400Y27700D01*
X62800Y27200D01*
X62100Y27000D01*
X61300Y27200D01*
X60600Y27800D01*
X60200Y28700D01*
X60100Y29700D01*
X60300Y31000D01*
X60600Y31700D01*
X61100Y32400D01*
X61800Y32900D01*
X62500Y33000D01*
X63200Y32800D01*
X63700Y32300D01*
G01X70000Y116200D02*
X70500Y115600D01*
X71100Y115200D01*
X71800Y115000D01*
X72600Y115200D01*
X73200Y115600D01*
X73800Y116200D01*
X74000Y117000D01*
Y121000D01*
G01X77800Y115000D02*
X78000Y116300D01*
X78300Y117400D01*
X78700Y118400D01*
X79200Y119500D01*
X80000Y121000D01*
X76000D01*
G01X65800Y139200D02*
X66200Y139500D01*
X66500Y140000D01*
X66700Y140700D01*
X66500Y141300D01*
X66100Y141700D01*
X65400Y142000D01*
X62700D01*
Y136000D01*
X66000D01*
X66700Y136400D01*
X67100Y137000D01*
X67300Y137700D01*
X67100Y138400D01*
X66500Y139000D01*
X65800Y139200D01*
X62700D01*
G01X69100Y141000D02*
X69700Y141600D01*
X70400Y141900D01*
X71200Y142000D01*
X72200Y141800D01*
X72900Y141300D01*
X73100Y140700D01*
X73000Y140100D01*
X72600Y139600D01*
X70600Y138600D01*
X69700Y137900D01*
X69100Y136900D01*
X68900Y136000D01*
X73100D01*
G01X131000Y28200D02*
X131500Y27600D01*
X132100Y27200D01*
X132800Y27000D01*
X133600Y27200D01*
X134200Y27600D01*
X134800Y28200D01*
X135000Y29000D01*
Y33000D01*
G01X140200Y27000D02*
Y33000D01*
X136500Y28700D01*
X141500D01*
G01X102000Y106000D02*
Y112000D01*
X104500D01*
X105300Y111700D01*
X105800Y111300D01*
X106000Y110500D01*
X105800Y109700D01*
X105200Y109200D01*
X104500Y108900D01*
X102000D01*
G01X104500D02*
X106000Y106000D01*
G01X110000D02*
Y112000D01*
X108800Y110800D01*
G01Y106000D02*
X111200D01*
G01X131500Y8000D02*
X134000Y14000D01*
X136500Y8000D01*
G01X135600Y10100D02*
X132400D01*
G01X140000Y8000D02*
Y14000D01*
X138800Y12800D01*
G01Y8000D02*
X141200D01*
G01X150000Y116200D02*
X150500Y115600D01*
X151100Y115200D01*
X151800Y115000D01*
X152600Y115200D01*
X153200Y115600D01*
X153800Y116200D01*
X154000Y117000D01*
Y121000D01*
G01X155800Y115900D02*
X156400Y115400D01*
X157100Y115100D01*
X158000Y115000D01*
X158900Y115200D01*
X159600Y115600D01*
X160100Y116300D01*
X160200Y117100D01*
X160000Y117900D01*
X159500Y118400D01*
X158800Y118800D01*
X158100Y118900D01*
X157400Y118800D01*
X156500Y118400D01*
X156800Y121000D01*
X159500D01*
G01X143800Y139200D02*
X144200Y139500D01*
X144500Y140000D01*
X144700Y140700D01*
X144500Y141300D01*
X144100Y141700D01*
X143400Y142000D01*
X140700D01*
Y136000D01*
X144000D01*
X144700Y136400D01*
X145100Y137000D01*
X145300Y137700D01*
X145100Y138400D01*
X144500Y139000D01*
X143800Y139200D01*
X140700D01*
G01X149000Y136000D02*
Y142000D01*
X147800Y140800D01*
G01Y136000D02*
X150200D01*
G01X170000Y64200D02*
X170500Y63600D01*
X171100Y63200D01*
X171800Y63000D01*
X172600Y63200D01*
X173200Y63600D01*
X173800Y64200D01*
X174000Y65000D01*
Y69000D01*
G01X178000Y63000D02*
Y69000D01*
X176800Y67800D01*
G01Y63000D02*
X179200D01*
G01X168000Y45000D02*
Y51000D01*
X166800Y49800D01*
G01Y45000D02*
X169200D01*
G01X172100Y50000D02*
X172700Y50600D01*
X173400Y50900D01*
X174200Y51000D01*
X175200Y50800D01*
X175900Y50300D01*
X176100Y49700D01*
X176000Y49100D01*
X175600Y48600D01*
X173600Y47600D01*
X172700Y46900D01*
X172100Y45900D01*
X171900Y45000D01*
X176100D01*
G01X176000Y103200D02*
X176500Y102600D01*
X177100Y102200D01*
X177800Y102000D01*
X178600Y102200D01*
X179200Y102600D01*
X179800Y103200D01*
X180000Y104000D01*
Y108000D01*
G01X181500Y102000D02*
X184000Y108000D01*
X186500Y102000D01*
G01X185600Y104100D02*
X182400D01*
G01X190000Y102000D02*
Y104700D01*
X188000Y108000D01*
G01X192000D02*
X190000Y104700D01*
G01X193500Y102000D02*
X196000Y108000D01*
X198500Y102000D01*
G01X197600Y104100D02*
X194400D01*
G01X199700Y102000D02*
Y108000D01*
X204300Y102000D01*
Y108000D01*
G01X205000Y100000D02*
X211000D01*
G01X214000Y108000D02*
X213200Y107800D01*
X212600Y107300D01*
X212200Y106700D01*
X211900Y105900D01*
X211800Y105000D01*
X211900Y104100D01*
X212200Y103300D01*
X212600Y102700D01*
X213200Y102200D01*
X214000Y102000D01*
X214800Y102200D01*
X215400Y102700D01*
X215800Y103300D01*
X216100Y104100D01*
X216200Y105000D01*
X216100Y105900D01*
X215800Y106700D01*
X215400Y107300D01*
X214800Y107800D01*
X214000Y108000D01*
G01X220000Y101800D02*
X219800Y101900D01*
Y102100D01*
X220000Y102200D01*
X220200Y102100D01*
Y101900D01*
X220000Y101800D01*
G01X226000Y102000D02*
Y108000D01*
X224800Y106800D01*
G01Y102000D02*
X227200D01*
G01X168000Y79000D02*
Y85000D01*
X166800Y83800D01*
G01Y79000D02*
X169200D01*
G01X171800Y80200D02*
X172400Y79500D01*
X173200Y79100D01*
X174100Y79000D01*
X174900Y79100D01*
X175700Y79600D01*
X176200Y80200D01*
X176300Y80800D01*
X176100Y81500D01*
X175400Y82000D01*
X174700Y82200D01*
X173800D01*
G01X174700D02*
X175300Y82500D01*
X175800Y83000D01*
X176000Y83600D01*
X175800Y84200D01*
X175300Y84700D01*
X174400Y85000D01*
X173500Y84900D01*
X172600Y84500D01*
G01X223000Y74000D02*
X223100Y74800D01*
X223500Y75500D01*
X224100Y76100D01*
X224800Y76500D01*
X225600Y76700D01*
X226400D01*
X227200Y76500D01*
X227900Y76100D01*
X228500Y75500D01*
X228900Y74800D01*
X229000Y74000D01*
X228900Y73200D01*
X228500Y72500D01*
X227900Y71900D01*
X227200Y71500D01*
X226400Y71300D01*
X225600D01*
X224800Y71500D01*
X224100Y71900D01*
X223500Y72500D01*
X223100Y73200D01*
X223000Y74000D01*
G01X229000Y70200D02*
X224700D01*
X223800Y69800D01*
X223200Y69000D01*
X223000Y68000D01*
X223200Y67000D01*
X223800Y66200D01*
X224700Y65800D01*
X229000D01*
G01Y62000D02*
X223000D01*
G01X229000Y64300D02*
Y59700D01*
G01X223000Y58000D02*
X229000D01*
Y55600D01*
X228700Y54800D01*
X228000Y54200D01*
X227200Y54000D01*
X226400Y54200D01*
X225800Y54700D01*
X225500Y55600D01*
Y58000D01*
G01X229000Y52200D02*
X224700D01*
X223800Y51800D01*
X223200Y51000D01*
X223000Y50000D01*
X223200Y49000D01*
X223800Y48200D01*
X224700Y47800D01*
X229000D01*
G01Y44000D02*
X223000D01*
G01X229000Y46300D02*
Y41700D01*
M02*
