G04 ================== begin FILE IDENTIFICATION RECORD ==================*
G04 Layout Name:  E:/office/PROJECT9/110317/PCB/7SEG.brd*
G04 Film Name:    TOP_ASS*
G04 File Format:  Gerber RS274X*
G04 File Origin:  Cadence Allegro 16.6-P004*
G04 Origin Date:  Sat Mar 11 20:02:50 2017*
G04 *
G04 Layer:  REF DES/ASSEMBLY_TOP*
G04 Layer:  PACKAGE GEOMETRY/ASSEMBLY_TOP*
G04 Layer:  BOARD GEOMETRY/OUTLINE*
G04 *
G04 Offset:    (0.00 0.00)*
G04 Mirror:    No*
G04 Mode:      Positive*
G04 Rotation:  0*
G04 FullContactRelief:  No*
G04 UndefLineWidth:     5.00*
G04 ================== end FILE IDENTIFICATION RECORD ====================*
%FSLAX25Y25*MOIN*%
%IR0*IPPOS*OFA0.00000B0.00000*MIA0B0*SFA1.00000B1.00000*%
%ADD10C,.005*%
%ADD11C,.006*%
G75*
%LPD*%
G75*
G54D10*
G01X240900Y11000D02*
Y6000D01*
G01X239443Y11000D02*
X242357D01*
G01X246000Y6000D02*
X245493Y6083D01*
X245050Y6417D01*
X244670Y6917D01*
X244417Y7500D01*
X244290Y8167D01*
Y8833D01*
X244417Y9500D01*
X244670Y10083D01*
X245050Y10583D01*
X245493Y10917D01*
X246000Y11000D01*
X246507Y10917D01*
X246950Y10583D01*
X247330Y10083D01*
X247583Y9500D01*
X247710Y8833D01*
Y8167D01*
X247583Y7500D01*
X247330Y6917D01*
X246950Y6417D01*
X246507Y6083D01*
X246000Y6000D01*
G01X249833D02*
Y11000D01*
X251353D01*
X251860Y10750D01*
X252240Y10167D01*
X252367Y9500D01*
X252240Y8833D01*
X251923Y8333D01*
X251353Y8083D01*
X249833D01*
G01X259717Y6000D02*
X261300Y11000D01*
X262883Y6000D01*
G01X262313Y7750D02*
X260287D01*
G01X265070Y6667D02*
X265577Y6250D01*
X266147Y6000D01*
X266653D01*
X267160Y6250D01*
X267540Y6667D01*
X267730Y7250D01*
X267603Y7833D01*
X267287Y8333D01*
X266717Y8667D01*
X265957Y8833D01*
X265513Y9167D01*
X265323Y9750D01*
X265450Y10333D01*
X265767Y10750D01*
X266210Y11000D01*
X266653D01*
X267097Y10833D01*
X267477Y10417D01*
G01X270170Y6667D02*
X270677Y6250D01*
X271247Y6000D01*
X271753D01*
X272260Y6250D01*
X272640Y6667D01*
X272830Y7250D01*
X272703Y7833D01*
X272387Y8333D01*
X271817Y8667D01*
X271057Y8833D01*
X270613Y9167D01*
X270423Y9750D01*
X270550Y10333D01*
X270867Y10750D01*
X271310Y11000D01*
X271753D01*
X272197Y10833D01*
X272577Y10417D01*
G01X277867Y6000D02*
X275333D01*
Y11000D01*
X277867D01*
G01X276853Y8583D02*
X275333D01*
G01X280053Y6000D02*
Y11000D01*
X281700Y6833D01*
X283347Y11000D01*
Y6000D01*
G01X287307Y8667D02*
X287560Y8917D01*
X287750Y9333D01*
X287877Y9917D01*
X287750Y10417D01*
X287497Y10750D01*
X287053Y11000D01*
X285343D01*
Y6000D01*
X287433D01*
X287877Y6333D01*
X288130Y6833D01*
X288257Y7417D01*
X288130Y8000D01*
X287750Y8500D01*
X287307Y8667D01*
X285343D01*
G01X290633Y11000D02*
Y6000D01*
X293167D01*
G01X297000D02*
Y8250D01*
X295733Y11000D01*
G01X298267D02*
X297000Y8250D01*
G01X0Y0D02*
X235600D01*
Y145800D01*
X0D01*
Y0D01*
G01X11500Y80500D02*
G03I-1000J0D01*
G01X30640Y104500D02*
G03I-14140J0D01*
G01X11200Y11000D02*
Y14000D01*
X12500Y11500D01*
X13800Y14000D01*
Y11000D01*
G01X14450D02*
Y14000D01*
G01X16550D02*
Y11000D01*
G01Y12500D02*
X14450D01*
G01X17400Y11600D02*
X17700Y11250D01*
X18100Y11050D01*
X18550Y11000D01*
X18950Y11050D01*
X19350Y11300D01*
X19600Y11600D01*
X19650Y11900D01*
X19550Y12250D01*
X19200Y12500D01*
X18850Y12600D01*
X18400D01*
G01X18850D02*
X19150Y12750D01*
X19400Y13000D01*
X19500Y13300D01*
X19400Y13600D01*
X19150Y13850D01*
X18700Y14000D01*
X18250Y13950D01*
X17800Y13750D01*
G01X42300Y41000D02*
G03I-1800J0D01*
G01X11500Y84500D02*
Y34500D01*
X21500D01*
Y84500D01*
X11500D01*
G01X59480Y90780D02*
Y134080D01*
X39780D01*
Y90780D01*
X59480D01*
G01X21500Y93500D02*
Y95500D01*
G01X20500Y94500D02*
X22500D01*
G01X17600Y107750D02*
X17300Y107900D01*
X16950Y108000D01*
X16550D01*
X16100Y107850D01*
X15750Y107600D01*
X15500Y107300D01*
X15300Y106800D01*
X15250Y106350D01*
X15350Y105900D01*
X15500Y105600D01*
X15800Y105300D01*
X16150Y105100D01*
X16500Y105000D01*
X16850D01*
X17200Y105100D01*
X17500Y105250D01*
X17750Y105450D01*
G01X19500Y105000D02*
Y108000D01*
X18900Y107400D01*
G01Y105000D02*
X20100D01*
G01X11200Y135000D02*
Y138000D01*
X12500Y135500D01*
X13800Y138000D01*
Y135000D01*
G01X14450D02*
Y138000D01*
G01X16550D02*
Y135000D01*
G01Y136500D02*
X14450D01*
G01X18500Y135000D02*
Y138000D01*
X17900Y137400D01*
G01Y135000D02*
X19100D01*
G01X52000Y16000D02*
X112000D01*
Y26000D01*
X52000D01*
Y16000D01*
G01X57000Y15000D02*
G03I-1000J0D01*
G01X44500Y69500D02*
X50500D01*
Y62500D01*
X44500D01*
G01Y44000D02*
X164500D01*
Y84000D01*
X44500D01*
Y44000D01*
G01X65500Y122500D02*
X125500D01*
Y132500D01*
X65500D01*
Y122500D01*
G01X70500Y121500D02*
G03I-1000J0D01*
G01X50600Y115750D02*
X50300Y115900D01*
X49950Y116000D01*
X49550D01*
X49100Y115850D01*
X48750Y115600D01*
X48500Y115300D01*
X48300Y114800D01*
X48250Y114350D01*
X48350Y113900D01*
X48500Y113600D01*
X48800Y113300D01*
X49150Y113100D01*
X49500Y113000D01*
X49850D01*
X50200Y113100D01*
X50500Y113250D01*
X50750Y113450D01*
G01X51550Y115500D02*
X51850Y115800D01*
X52200Y115950D01*
X52600Y116000D01*
X53100Y115900D01*
X53450Y115650D01*
X53550Y115350D01*
X53500Y115050D01*
X53300Y114800D01*
X52300Y114300D01*
X51850Y113950D01*
X51550Y113450D01*
X51450Y113000D01*
X53550D01*
G01X127500Y105000D02*
Y99000D01*
X71500D01*
Y105000D01*
X127500D01*
G01X128500Y16000D02*
X188500D01*
Y26000D01*
X128500D01*
Y16000D01*
G01X107550Y13250D02*
X107900Y13600D01*
X108200Y13800D01*
X108600Y13900D01*
X108950Y13800D01*
X109200Y13600D01*
X109400Y13300D01*
X109450Y12950D01*
X109400Y12650D01*
X109200Y12350D01*
X108900Y12100D01*
X108550Y12000D01*
X108150Y12100D01*
X107800Y12400D01*
X107600Y12850D01*
X107550Y13350D01*
X107650Y14000D01*
X107800Y14350D01*
X108050Y14700D01*
X108400Y14950D01*
X108750Y15000D01*
X109100Y14900D01*
X109350Y14650D01*
G01X121050Y119750D02*
X121400Y120100D01*
X121700Y120300D01*
X122100Y120400D01*
X122450Y120300D01*
X122700Y120100D01*
X122900Y119800D01*
X122950Y119450D01*
X122900Y119150D01*
X122700Y118850D01*
X122400Y118600D01*
X122050Y118500D01*
X121650Y118600D01*
X121300Y118900D01*
X121100Y119350D01*
X121050Y119850D01*
X121150Y120500D01*
X121300Y120850D01*
X121550Y121200D01*
X121900Y121450D01*
X122250Y121500D01*
X122600Y121400D01*
X122850Y121150D01*
G01X133500Y15000D02*
G03I-1000J0D01*
G01X142000Y122500D02*
X202000D01*
Y132500D01*
X142000D01*
Y122500D01*
G01X147000Y121500D02*
G03I-1000J0D01*
G01X184050Y13250D02*
X184400Y13600D01*
X184700Y13800D01*
X185100Y13900D01*
X185450Y13800D01*
X185700Y13600D01*
X185900Y13300D01*
X185950Y12950D01*
X185900Y12650D01*
X185700Y12350D01*
X185400Y12100D01*
X185050Y12000D01*
X184650Y12100D01*
X184300Y12400D01*
X184100Y12850D01*
X184050Y13350D01*
X184150Y14000D01*
X184300Y14350D01*
X184550Y14700D01*
X184900Y14950D01*
X185250Y15000D01*
X185600Y14900D01*
X185850Y14650D01*
G01X205000Y80000D02*
Y40000D01*
X215000D01*
Y80000D01*
X205000D01*
G01X207500Y58600D02*
X207750Y58300D01*
X208050Y58100D01*
X208400Y58000D01*
X208800Y58100D01*
X209100Y58300D01*
X209400Y58600D01*
X209500Y59000D01*
Y61000D01*
G01X210400Y58600D02*
X210700Y58250D01*
X211100Y58050D01*
X211550Y58000D01*
X211950Y58050D01*
X212350Y58300D01*
X212600Y58600D01*
X212650Y58900D01*
X212550Y59250D01*
X212200Y59500D01*
X211850Y59600D01*
X211400D01*
G01X211850D02*
X212150Y59750D01*
X212400Y60000D01*
X212500Y60300D01*
X212400Y60600D01*
X212150Y60850D01*
X211700Y61000D01*
X211250Y60950D01*
X210800Y60750D01*
G01X202000Y43900D02*
X205000D01*
X202850Y45750D01*
Y43250D01*
G01X205000Y77000D02*
G03I-1000J0D01*
G01X197550Y119750D02*
X197900Y120100D01*
X198200Y120300D01*
X198600Y120400D01*
X198950Y120300D01*
X199200Y120100D01*
X199400Y119800D01*
X199450Y119450D01*
X199400Y119150D01*
X199200Y118850D01*
X198900Y118600D01*
X198550Y118500D01*
X198150Y118600D01*
X197800Y118900D01*
X197600Y119350D01*
X197550Y119850D01*
X197650Y120500D01*
X197800Y120850D01*
X198050Y121200D01*
X198400Y121450D01*
X198750Y121500D01*
X199100Y121400D01*
X199350Y121150D01*
G01X223200Y11000D02*
Y14000D01*
X224500Y11500D01*
X225800Y14000D01*
Y11000D01*
G01X226450D02*
Y14000D01*
G01X228550D02*
Y11000D01*
G01Y12500D02*
X226450D01*
G01X231100Y11000D02*
Y14000D01*
X229250Y11850D01*
X231750D01*
G01X224200Y134000D02*
Y137000D01*
X225500Y134500D01*
X226800Y137000D01*
Y134000D01*
G01X227450D02*
Y137000D01*
G01X229550D02*
Y134000D01*
G01Y135500D02*
X227450D01*
G01X230550Y136500D02*
X230850Y136800D01*
X231200Y136950D01*
X231600Y137000D01*
X232100Y136900D01*
X232450Y136650D01*
X232550Y136350D01*
X232500Y136050D01*
X232300Y135800D01*
X231300Y135300D01*
X230850Y134950D01*
X230550Y134450D01*
X230450Y134000D01*
X232550D01*
G54D11*
G01X5800Y34900D02*
X6400Y34400D01*
X7100Y34100D01*
X8000Y34000D01*
X8900Y34200D01*
X9600Y34600D01*
X10100Y35300D01*
X10200Y36100D01*
X10000Y36900D01*
X9500Y37400D01*
X8800Y37800D01*
X8100Y37900D01*
X7400Y37800D01*
X6500Y37400D01*
X6800Y40000D01*
X9500D01*
G01X11000Y62200D02*
X11500Y61600D01*
X12100Y61200D01*
X12800Y61000D01*
X13600Y61200D01*
X14200Y61600D01*
X14800Y62200D01*
X15000Y63000D01*
Y67000D01*
G01X17100Y66000D02*
X17700Y66600D01*
X18400Y66900D01*
X19200Y67000D01*
X20200Y66800D01*
X20900Y66300D01*
X21100Y65700D01*
X21000Y65100D01*
X20600Y64600D01*
X18600Y63600D01*
X17700Y62900D01*
X17100Y61900D01*
X16900Y61000D01*
X21100D01*
G01X33100Y84000D02*
X33700Y84600D01*
X34400Y84900D01*
X35200Y85000D01*
X36200Y84800D01*
X36900Y84300D01*
X37100Y83700D01*
X37000Y83100D01*
X36600Y82600D01*
X34600Y81600D01*
X33700Y80900D01*
X33100Y79900D01*
X32900Y79000D01*
X37100D01*
G01X42200D02*
Y85000D01*
X38500Y80700D01*
X43500D01*
G01X82000Y20200D02*
X82500Y19600D01*
X83100Y19200D01*
X83800Y19000D01*
X84600Y19200D01*
X85200Y19600D01*
X85800Y20200D01*
X86000Y21000D01*
Y25000D01*
G01X88100Y21500D02*
X88800Y22200D01*
X89400Y22600D01*
X90200Y22800D01*
X90900Y22600D01*
X91400Y22200D01*
X91800Y21600D01*
X91900Y20900D01*
X91800Y20300D01*
X91400Y19700D01*
X90800Y19200D01*
X90100Y19000D01*
X89300Y19200D01*
X88600Y19800D01*
X88200Y20700D01*
X88100Y21700D01*
X88300Y23000D01*
X88600Y23700D01*
X89100Y24400D01*
X89800Y24900D01*
X90500Y25000D01*
X91200Y24800D01*
X91700Y24300D01*
G01X86000Y126200D02*
X86500Y125600D01*
X87100Y125200D01*
X87800Y125000D01*
X88600Y125200D01*
X89200Y125600D01*
X89800Y126200D01*
X90000Y127000D01*
Y131000D01*
G01X93800Y125000D02*
X94000Y126300D01*
X94300Y127400D01*
X94700Y128400D01*
X95200Y129500D01*
X96000Y131000D01*
X92000D01*
G01X97000Y106000D02*
Y112000D01*
X99500D01*
X100300Y111700D01*
X100800Y111300D01*
X101000Y110500D01*
X100800Y109700D01*
X100200Y109200D01*
X99500Y108900D01*
X97000D01*
G01X99500D02*
X101000Y106000D01*
G01X105000D02*
Y112000D01*
X103800Y110800D01*
G01Y106000D02*
X106200D01*
G01X105000Y63200D02*
X105500Y62600D01*
X106100Y62200D01*
X106800Y62000D01*
X107600Y62200D01*
X108200Y62600D01*
X108800Y63200D01*
X109000Y64000D01*
Y68000D01*
G01X113000Y62000D02*
Y68000D01*
X111800Y66800D01*
G01Y62000D02*
X114200D01*
G01X158500Y20200D02*
X159000Y19600D01*
X159600Y19200D01*
X160300Y19000D01*
X161100Y19200D01*
X161700Y19600D01*
X162300Y20200D01*
X162500Y21000D01*
Y25000D01*
G01X167700Y19000D02*
Y25000D01*
X164000Y20700D01*
X169000D01*
G01X167000Y44000D02*
Y50000D01*
X165800Y48800D01*
G01Y44000D02*
X168200D01*
G01X171100Y49000D02*
X171700Y49600D01*
X172400Y49900D01*
X173200Y50000D01*
X174200Y49800D01*
X174900Y49300D01*
X175100Y48700D01*
X175000Y48100D01*
X174600Y47600D01*
X172600Y46600D01*
X171700Y45900D01*
X171100Y44900D01*
X170900Y44000D01*
X175100D01*
G01X167000Y79000D02*
Y85000D01*
X165800Y83800D01*
G01Y79000D02*
X168200D01*
G01X170800Y80200D02*
X171400Y79500D01*
X172200Y79100D01*
X173100Y79000D01*
X173900Y79100D01*
X174700Y79600D01*
X175200Y80200D01*
X175300Y80800D01*
X175100Y81500D01*
X174400Y82000D01*
X173700Y82200D01*
X172800D01*
G01X173700D02*
X174300Y82500D01*
X174800Y83000D01*
X175000Y83600D01*
X174800Y84200D01*
X174300Y84700D01*
X173400Y85000D01*
X172500Y84900D01*
X171600Y84500D01*
M02*
